<svg width="19" height="19" viewBox="0 0 19 19" fill="none" xmlns="http://www.w3.org/2000/svg">
<path d="M18.3969 9.2904C18.3969 8.68257 18.3381 8.05513 18.24 7.4669H9.75V10.9374H14.6127C14.4166 12.0551 13.7695 13.0354 12.8088 13.6629L15.7107 15.9177C17.4165 14.3295 18.3969 12.0158 18.3969 9.2904Z" fill="#4280EF"/>
<path d="M9.75 18.0746C12.1813 18.0746 14.2205 17.2707 15.7107 15.8981L12.8088 13.6629C12.0049 14.2119 10.9657 14.5256 9.75 14.5256C7.3971 14.5256 5.41675 12.9374 4.69127 10.8198L1.71094 13.1139C3.24032 16.153 6.3383 18.0746 9.75 18.0746Z" fill="#34A353"/>
<path d="M4.69108 10.8002C4.31854 9.68255 4.31854 8.46689 4.69108 7.34926L1.71075 5.03558C0.436261 7.58455 0.436261 10.5845 1.71075 13.1139L4.69108 10.8002Z" fill="#F6B704"/>
<path d="M9.75 3.64349C11.0245 3.62388 12.2794 4.11407 13.2009 4.9964L15.7695 2.40822C14.1421 0.878833 11.9853 0.0553197 9.75 0.0749272C6.3383 0.0749272 3.24032 1.99646 1.71094 5.03562L4.69127 7.3493C5.41675 5.21208 7.3971 3.64349 9.75 3.64349Z" fill="#E54335"/>
</svg>
